<svg width="30" height="28" viewBox="0 0 30 28" fill="none" xmlns="http://www.w3.org/2000/svg">
<path d="M8.03606 3.37839C8.19365 3.2074 8.27122 2.98705 8.25211 2.76465C8.23299 2.54225 8.11872 2.33553 7.93383 2.18886C7.74893 2.04219 7.50816 1.96728 7.26318 1.98019C7.01821 1.99311 6.78857 2.09282 6.62356 2.25793L5.00856 3.93975C4.09279 4.89381 3.57511 6.11017 3.54606 7.37612L3.47481 10.4659C3.46967 10.6919 3.56352 10.9106 3.7357 11.0737C3.90788 11.2368 4.14429 11.3311 4.39293 11.3358C4.64158 11.3404 4.88207 11.2551 5.06152 11.0986C5.24097 10.9421 5.34467 10.7272 5.34981 10.5011L5.41981 7.41248C5.43986 6.54626 5.79428 5.71403 6.42106 5.06134L8.03606 3.37839Z" fill="#00BA29"/>
<path fill-rule="evenodd" clip-rule="evenodd" d="M8.27251 8.47727C8.35645 7.26152 8.9469 6.12055 9.92366 5.28663C10.9004 4.45272 12.19 3.98856 13.53 3.98864H14.2263V3.13636C14.2263 2.83498 14.358 2.54594 14.5924 2.33283C14.8268 2.11972 15.1447 2 15.4763 2C15.8078 2 16.1257 2.11972 16.3601 2.33283C16.5946 2.54594 16.7263 2.83498 16.7263 3.13636V3.98864H17.4225C18.7625 3.98856 20.0521 4.45272 21.0289 5.28663C22.0056 6.12055 22.5961 7.26152 22.68 8.47727L22.9563 12.4932C23.0615 14.0244 23.6271 15.4999 24.5913 16.7591C24.7905 17.0194 24.9122 17.3221 24.9446 17.6379C24.977 17.9536 24.9189 18.2716 24.7761 18.5609C24.6333 18.8502 24.4105 19.1009 24.1295 19.2888C23.8485 19.4767 23.5188 19.5952 23.1725 19.633L18.9138 20.0966V21.3182C18.9138 22.147 18.5516 22.9418 17.9069 23.5279C17.2623 24.1139 16.3879 24.4432 15.4763 24.4432C14.5646 24.4432 13.6902 24.1139 13.0456 23.5279C12.4009 22.9418 12.0388 22.147 12.0388 21.3182V20.0966L7.78001 19.6318C7.43387 19.594 7.10439 19.4754 6.82356 19.2876C6.54273 19.0998 6.32011 18.8492 6.17732 18.5601C6.03453 18.2709 5.97643 17.9532 6.00866 17.6376C6.04089 17.322 6.16235 17.0194 6.36126 16.7591C7.32538 15.4999 7.89092 14.0244 7.99626 12.4932L8.27251 8.47727ZM13.9138 21.3182C13.9138 21.6949 14.0784 22.0562 14.3714 22.3226C14.6644 22.589 15.0619 22.7386 15.4763 22.7386C15.8907 22.7386 16.2881 22.589 16.5811 22.3226C16.8741 22.0562 17.0388 21.6949 17.0388 21.3182V20.4659H13.9138V21.3182Z" fill="#00BA29"/>
<path d="M22.0534 2.17617C21.8661 2.32478 21.7515 2.53491 21.7346 2.76037C21.7177 2.98583 21.8 3.20815 21.9634 3.37845L23.5784 5.06027C24.205 5.7134 24.559 6.54607 24.5784 7.41254L24.6497 10.5C24.6522 10.612 24.679 10.7223 24.7284 10.8248C24.7779 10.9274 24.8491 11.02 24.9379 11.0975C25.0268 11.175 25.1316 11.2359 25.2463 11.2766C25.361 11.3173 25.4834 11.337 25.6065 11.3347C25.7296 11.3324 25.8511 11.308 25.9638 11.2631C26.0766 11.2181 26.1785 11.1534 26.2638 11.0726C26.349 10.9918 26.4159 10.8966 26.4607 10.7923C26.5055 10.688 26.5272 10.5767 26.5247 10.4648L26.4534 7.37617C26.4244 6.11023 25.9067 4.89386 24.9909 3.93981L23.3759 2.25799C23.2124 2.08775 22.9813 1.9835 22.7333 1.96815C22.4853 1.95281 22.2407 2.02764 22.0534 2.17617Z" fill="#00BA29"/>
</svg>
