<svg width="28" height="21" viewBox="0 0 28 21" fill="none" xmlns="http://www.w3.org/2000/svg">
<path d="M0 0.894193C0 0.657039 0.126437 0.429597 0.351496 0.261903C0.576556 0.0942093 0.881802 0 1.20008 0H2.09295C3.61305 0 4.52512 0.761853 5.04515 1.47005C5.39238 1.94219 5.64359 2.48943 5.84041 2.98541C5.89364 2.98228 5.94702 2.98069 6.00042 2.98064H25.9986C27.3267 2.98064 28.2868 3.9273 27.922 4.87991L24.9969 12.5211C24.7347 13.2065 24.1799 13.8095 23.4165 14.2389C22.6531 14.6683 21.7227 14.9007 20.7662 14.9008H11.2488C10.2847 14.9009 9.3473 14.665 8.58064 14.2294C7.81398 13.7939 7.26051 13.1828 7.00529 12.4901L5.7892 9.18516L3.77306 4.12044L3.77146 4.11091C3.52185 3.4349 3.28823 2.80181 2.9394 2.32967C2.60498 1.87065 2.33616 1.78839 2.09455 1.78839H1.20008C0.881802 1.78839 0.576556 1.69418 0.351496 1.52648C0.126437 1.35879 0 1.13135 0 0.894193ZM8.11737 8.75117L9.31905 12.0168C9.55907 12.663 10.3479 13.1125 11.2488 13.1125H20.7662C21.201 13.1124 21.6239 13.0069 21.971 12.8118C22.318 12.6166 22.5703 12.3426 22.6896 12.0311L25.469 4.76903H6.53646L8.09496 8.68798L8.11737 8.75117ZM13.6009 18.48C13.6009 19.1124 13.2638 19.7189 12.6636 20.1661C12.0635 20.6133 11.2495 20.8645 10.4007 20.8645C9.55197 20.8645 8.73798 20.6133 8.13783 20.1661C7.53767 19.7189 7.2005 19.1124 7.2005 18.48C7.2005 17.8476 7.53767 17.2411 8.13783 16.7939C8.73798 16.3467 9.55197 16.0955 10.4007 16.0955C11.2495 16.0955 12.0635 16.3467 12.6636 16.7939C13.2638 17.2411 13.6009 17.8476 13.6009 18.48ZM11.2008 18.48C11.2008 18.3219 11.1165 18.1703 10.9665 18.0585C10.8164 17.9467 10.6129 17.8839 10.4007 17.8839C10.1885 17.8839 9.98504 17.9467 9.835 18.0585C9.68496 18.1703 9.60067 18.3219 9.60067 18.48C9.60067 18.6381 9.68496 18.7897 9.835 18.9015C9.98504 19.0133 10.1885 19.0761 10.4007 19.0761C10.6129 19.0761 10.8164 19.0133 10.9665 18.9015C11.1165 18.7897 11.2008 18.6381 11.2008 18.48ZM24.8017 18.48C24.8017 19.1124 24.4646 19.7189 23.8644 20.1661C23.2642 20.6133 22.4503 20.8645 21.6015 20.8645C20.7528 20.8645 19.9388 20.6133 19.3386 20.1661C18.7385 19.7189 18.4013 19.1124 18.4013 18.48C18.4013 17.8476 18.7385 17.2411 19.3386 16.7939C19.9388 16.3467 20.7528 16.0955 21.6015 16.0955C22.4503 16.0955 23.2642 16.3467 23.8644 16.7939C24.4646 17.2411 24.8017 17.8476 24.8017 18.48ZM22.4016 18.48C22.4016 18.3219 22.3173 18.1703 22.1672 18.0585C22.0172 17.9467 21.8137 17.8839 21.6015 17.8839C21.3893 17.8839 21.1858 17.9467 21.0358 18.0585C20.8857 18.1703 20.8015 18.3219 20.8015 18.48C20.8015 18.6381 20.8857 18.7897 21.0358 18.9015C21.1858 19.0133 21.3893 19.0761 21.6015 19.0761C21.8137 19.0761 22.0172 19.0133 22.1672 18.9015C22.3173 18.7897 22.4016 18.6381 22.4016 18.48Z" fill="#00BA29"/>
</svg>
