<svg width="388" height="76" viewBox="0 0 388 76" fill="none" xmlns="http://www.w3.org/2000/svg">
<line x1="194" y1="21.25" y2="21.25" stroke="#01B928" stroke-width="2.5"/>
<line x1="388" y1="21.25" x2="194" y2="21.25" stroke="#01B928" stroke-width="2.5"/>
<path d="M59.8052 65.416C59.8052 64.328 60.0505 63.352 60.5412 62.488C61.0319 61.6133 61.6985 60.9307 62.5412 60.44C63.3945 59.9493 64.3385 59.704 65.3732 59.704C66.5892 59.704 67.6505 59.9973 68.5572 60.584C69.4639 61.1707 70.1252 62.0027 70.5412 63.08H68.7972C68.4879 62.408 68.0399 61.8907 67.4532 61.528C66.8772 61.1653 66.1839 60.984 65.3732 60.984C64.5945 60.984 63.8959 61.1653 63.2772 61.528C62.6585 61.8907 62.1732 62.408 61.8212 63.08C61.4692 63.7413 61.2932 64.52 61.2932 65.416C61.2932 66.3013 61.4692 67.08 61.8212 67.752C62.1732 68.4133 62.6585 68.9253 63.2772 69.288C63.8959 69.6507 64.5945 69.832 65.3732 69.832C66.1839 69.832 66.8772 69.656 67.4532 69.304C68.0399 68.9413 68.4879 68.424 68.7972 67.752H70.5412C70.1252 68.8187 69.4639 69.6453 68.5572 70.232C67.6505 70.808 66.5892 71.096 65.3732 71.096C64.3385 71.096 63.3945 70.856 62.5412 70.376C61.6985 69.8853 61.0319 69.208 60.5412 68.344C60.0505 67.48 59.8052 66.504 59.8052 65.416ZM77.0606 62.072C77.7219 62.072 78.3192 62.216 78.8526 62.504C79.3859 62.7813 79.8019 63.2027 80.1006 63.768C80.4099 64.3333 80.5646 65.0213 80.5646 65.832V71H79.1246V66.04C79.1246 65.1653 78.9059 64.4987 78.4686 64.04C78.0312 63.5707 77.4339 63.336 76.6766 63.336C75.9086 63.336 75.2952 63.576 74.8366 64.056C74.3886 64.536 74.1646 65.2347 74.1646 66.152V71H72.7086V59.16H74.1646V63.48C74.4526 63.032 74.8472 62.6853 75.3486 62.44C75.8606 62.1947 76.4312 62.072 77.0606 62.072ZM90.9429 66.28C90.9429 66.5573 90.9269 66.8507 90.8949 67.16H83.8869C83.9403 68.024 84.2336 68.7013 84.7669 69.192C85.3109 69.672 85.9669 69.912 86.7349 69.912C87.3643 69.912 87.8869 69.768 88.3029 69.48C88.7296 69.1813 89.0283 68.7867 89.1989 68.296H90.7669C90.5323 69.1387 90.0629 69.8267 89.3589 70.36C88.6549 70.8827 87.7803 71.144 86.7349 71.144C85.9029 71.144 85.1563 70.9573 84.4949 70.584C83.8443 70.2107 83.3323 69.6827 82.9589 69C82.5856 68.3067 82.3989 67.5067 82.3989 66.6C82.3989 65.6933 82.5803 64.8987 82.9429 64.216C83.3056 63.5333 83.8123 63.0107 84.4629 62.648C85.1243 62.2747 85.8816 62.088 86.7349 62.088C87.5669 62.088 88.3029 62.2693 88.9429 62.632C89.5829 62.9947 90.0736 63.496 90.4149 64.136C90.7669 64.7653 90.9429 65.48 90.9429 66.28ZM89.4389 65.976C89.4389 65.4213 89.3163 64.9467 89.0709 64.552C88.8256 64.1467 88.4896 63.8427 88.0629 63.64C87.6469 63.4267 87.1829 63.32 86.6709 63.32C85.9349 63.32 85.3056 63.5547 84.7829 64.024C84.2709 64.4933 83.9776 65.144 83.9029 65.976H89.4389ZM92.3208 66.6C92.3208 65.6933 92.5021 64.904 92.8648 64.232C93.2275 63.5493 93.7288 63.0213 94.3688 62.648C95.0195 62.2747 95.7608 62.088 96.5928 62.088C97.6701 62.088 98.5555 62.3493 99.2488 62.872C99.9528 63.3947 100.417 64.12 100.641 65.048H99.0728C98.9235 64.5147 98.6301 64.0933 98.1928 63.784C97.7661 63.4747 97.2328 63.32 96.5928 63.32C95.7608 63.32 95.0888 63.608 94.5768 64.184C94.0648 64.7493 93.8088 65.5547 93.8088 66.6C93.8088 67.656 94.0648 68.472 94.5768 69.048C95.0888 69.624 95.7608 69.912 96.5928 69.912C97.2328 69.912 97.7661 69.7627 98.1928 69.464C98.6195 69.1653 98.9128 68.7387 99.0728 68.184H100.641C100.406 69.08 99.9368 69.8 99.2328 70.344C98.5288 70.8773 97.6488 71.144 96.5928 71.144C95.7608 71.144 95.0195 70.9573 94.3688 70.584C93.7288 70.2107 93.2275 69.6827 92.8648 69C92.5021 68.3173 92.3208 67.5173 92.3208 66.6ZM107.48 71L104.04 67.128V71H102.584V59.16H104.04V66.12L107.416 62.232H109.448L105.32 66.6L109.464 71H107.48ZM114.642 71.144C113.821 71.144 113.074 70.9573 112.402 70.584C111.741 70.2107 111.218 69.6827 110.834 69C110.461 68.3067 110.274 67.5067 110.274 66.6C110.274 65.704 110.466 64.9147 110.85 64.232C111.245 63.5387 111.778 63.0107 112.45 62.648C113.122 62.2747 113.874 62.088 114.706 62.088C115.538 62.088 116.29 62.2747 116.962 62.648C117.634 63.0107 118.162 63.5333 118.546 64.216C118.941 64.8987 119.138 65.6933 119.138 66.6C119.138 67.5067 118.935 68.3067 118.53 69C118.135 69.6827 117.597 70.2107 116.914 70.584C116.231 70.9573 115.474 71.144 114.642 71.144ZM114.642 69.864C115.165 69.864 115.655 69.7413 116.114 69.496C116.573 69.2507 116.941 68.8827 117.218 68.392C117.506 67.9013 117.65 67.304 117.65 66.6C117.65 65.896 117.511 65.2987 117.234 64.808C116.957 64.3173 116.594 63.9547 116.146 63.72C115.698 63.4747 115.213 63.352 114.69 63.352C114.157 63.352 113.666 63.4747 113.218 63.72C112.781 63.9547 112.429 64.3173 112.162 64.808C111.895 65.2987 111.762 65.896 111.762 66.6C111.762 67.3147 111.89 67.9173 112.146 68.408C112.413 68.8987 112.765 69.2667 113.202 69.512C113.639 69.7467 114.119 69.864 114.642 69.864ZM128.828 62.232V71H127.372V69.704C127.095 70.152 126.706 70.504 126.204 70.76C125.714 71.0053 125.17 71.128 124.572 71.128C123.89 71.128 123.276 70.9893 122.732 70.712C122.188 70.424 121.756 69.9973 121.436 69.432C121.127 68.8667 120.972 68.1787 120.972 67.368V62.232H122.412V67.176C122.412 68.04 122.631 68.7067 123.068 69.176C123.506 69.6347 124.103 69.864 124.86 69.864C125.639 69.864 126.252 69.624 126.7 69.144C127.148 68.664 127.372 67.9653 127.372 67.048V62.232H128.828ZM133.063 63.432V68.6C133.063 69.0267 133.153 69.3307 133.335 69.512C133.516 69.6827 133.831 69.768 134.279 69.768H135.351V71H134.039C133.228 71 132.62 70.8133 132.215 70.44C131.809 70.0667 131.607 69.4533 131.607 68.6V63.432H130.471V62.232H131.607V60.024H133.063V62.232H135.351V63.432H133.063Z" fill="black"/>
<path d="M258.727 63.112C258.727 64.04 258.407 64.8133 257.767 65.432C257.138 66.04 256.172 66.344 254.871 66.344H252.727V71H251.271V59.848H254.871C256.13 59.848 257.084 60.152 257.735 60.76C258.396 61.368 258.727 62.152 258.727 63.112ZM254.871 65.144C255.682 65.144 256.279 64.968 256.663 64.616C257.047 64.264 257.239 63.7627 257.239 63.112C257.239 61.736 256.45 61.048 254.871 61.048H252.727V65.144H254.871ZM259.993 66.584C259.993 65.688 260.174 64.904 260.537 64.232C260.899 63.5493 261.395 63.0213 262.025 62.648C262.665 62.2747 263.374 62.088 264.153 62.088C264.921 62.088 265.587 62.2533 266.153 62.584C266.718 62.9147 267.139 63.3307 267.417 63.832V62.232H268.889V71H267.417V69.368C267.129 69.88 266.697 70.3067 266.121 70.648C265.555 70.9787 264.894 71.144 264.137 71.144C263.358 71.144 262.654 70.952 262.025 70.568C261.395 70.184 260.899 69.6453 260.537 68.952C260.174 68.2587 259.993 67.4693 259.993 66.584ZM267.417 66.6C267.417 65.9387 267.283 65.3627 267.017 64.872C266.75 64.3813 266.387 64.008 265.929 63.752C265.481 63.4853 264.985 63.352 264.441 63.352C263.897 63.352 263.401 63.48 262.953 63.736C262.505 63.992 262.147 64.3653 261.881 64.856C261.614 65.3467 261.481 65.9227 261.481 66.584C261.481 67.256 261.614 67.8427 261.881 68.344C262.147 68.8347 262.505 69.2133 262.953 69.48C263.401 69.736 263.897 69.864 264.441 69.864C264.985 69.864 265.481 69.736 265.929 69.48C266.387 69.2133 266.75 68.8347 267.017 68.344C267.283 67.8427 267.417 67.2613 267.417 66.6ZM278.901 62.232L273.621 75.128H272.117L273.845 70.904L270.309 62.232H271.925L274.677 69.336L277.397 62.232H278.901ZM290.909 62.072C291.591 62.072 292.199 62.216 292.733 62.504C293.266 62.7813 293.687 63.2027 293.997 63.768C294.306 64.3333 294.461 65.0213 294.461 65.832V71H293.021V66.04C293.021 65.1653 292.802 64.4987 292.365 64.04C291.938 63.5707 291.357 63.336 290.621 63.336C289.863 63.336 289.261 63.5813 288.813 64.072C288.365 64.552 288.141 65.2507 288.141 66.168V71H286.701V66.04C286.701 65.1653 286.482 64.4987 286.045 64.04C285.618 63.5707 285.037 63.336 284.301 63.336C283.543 63.336 282.941 63.5813 282.493 64.072C282.045 64.552 281.821 65.2507 281.821 66.168V71H280.365V62.232H281.821V63.496C282.109 63.0373 282.493 62.6853 282.973 62.44C283.463 62.1947 284.002 62.072 284.589 62.072C285.325 62.072 285.975 62.2373 286.541 62.568C287.106 62.8987 287.527 63.384 287.805 64.024C288.05 63.4053 288.455 62.9253 289.021 62.584C289.586 62.2427 290.215 62.072 290.909 62.072ZM304.849 66.28C304.849 66.5573 304.833 66.8507 304.801 67.16H297.793C297.847 68.024 298.14 68.7013 298.673 69.192C299.217 69.672 299.873 69.912 300.641 69.912C301.271 69.912 301.793 69.768 302.209 69.48C302.636 69.1813 302.935 68.7867 303.105 68.296H304.673C304.439 69.1387 303.969 69.8267 303.265 70.36C302.561 70.8827 301.687 71.144 300.641 71.144C299.809 71.144 299.063 70.9573 298.401 70.584C297.751 70.2107 297.239 69.6827 296.865 69C296.492 68.3067 296.305 67.5067 296.305 66.6C296.305 65.6933 296.487 64.8987 296.849 64.216C297.212 63.5333 297.719 63.0107 298.369 62.648C299.031 62.2747 299.788 62.088 300.641 62.088C301.473 62.088 302.209 62.2693 302.849 62.632C303.489 62.9947 303.98 63.496 304.321 64.136C304.673 64.7653 304.849 65.48 304.849 66.28ZM303.345 65.976C303.345 65.4213 303.223 64.9467 302.977 64.552C302.732 64.1467 302.396 63.8427 301.969 63.64C301.553 63.4267 301.089 63.32 300.577 63.32C299.841 63.32 299.212 63.5547 298.689 64.024C298.177 64.4933 297.884 65.144 297.809 65.976H303.345ZM311.043 62.072C312.11 62.072 312.974 62.3973 313.635 63.048C314.296 63.688 314.627 64.616 314.627 65.832V71H313.187V66.04C313.187 65.1653 312.968 64.4987 312.531 64.04C312.094 63.5707 311.496 63.336 310.739 63.336C309.971 63.336 309.358 63.576 308.899 64.056C308.451 64.536 308.227 65.2347 308.227 66.152V71H306.771V62.232H308.227V63.48C308.515 63.032 308.904 62.6853 309.395 62.44C309.896 62.1947 310.446 62.072 311.043 62.072ZM318.781 63.432V68.6C318.781 69.0267 318.872 69.3307 319.053 69.512C319.235 69.6827 319.549 69.768 319.997 69.768H321.069V71H319.757C318.947 71 318.339 70.8133 317.933 70.44C317.528 70.0667 317.325 69.4533 317.325 68.6V63.432H316.189V62.232H317.325V60.024H318.781V62.232H321.069V63.432H318.781ZM325.938 71.144C325.266 71.144 324.663 71.032 324.13 70.808C323.596 70.5733 323.175 70.2533 322.866 69.848C322.556 69.432 322.386 68.9573 322.354 68.424H323.858C323.9 68.8613 324.103 69.2187 324.466 69.496C324.839 69.7733 325.324 69.912 325.922 69.912C326.476 69.912 326.914 69.7893 327.234 69.544C327.554 69.2987 327.714 68.9893 327.714 68.616C327.714 68.232 327.543 67.9493 327.202 67.768C326.86 67.576 326.332 67.3893 325.618 67.208C324.967 67.0373 324.434 66.8667 324.018 66.696C323.612 66.5147 323.26 66.2533 322.962 65.912C322.674 65.56 322.53 65.1013 322.53 64.536C322.53 64.088 322.663 63.6773 322.93 63.304C323.196 62.9307 323.575 62.6373 324.066 62.424C324.556 62.2 325.116 62.088 325.746 62.088C326.716 62.088 327.5 62.3333 328.098 62.824C328.695 63.3147 329.015 63.9867 329.058 64.84H327.602C327.57 64.3813 327.383 64.0133 327.042 63.736C326.711 63.4587 326.263 63.32 325.698 63.32C325.175 63.32 324.759 63.432 324.45 63.656C324.14 63.88 323.986 64.1733 323.986 64.536C323.986 64.824 324.076 65.064 324.258 65.256C324.45 65.4373 324.684 65.5867 324.962 65.704C325.25 65.8107 325.644 65.9333 326.146 66.072C326.775 66.2427 327.287 66.4133 327.682 66.584C328.076 66.744 328.412 66.9893 328.69 67.32C328.978 67.6507 329.127 68.0827 329.138 68.616C329.138 69.096 329.004 69.528 328.738 69.912C328.471 70.296 328.092 70.6 327.602 70.824C327.122 71.0373 326.567 71.144 325.938 71.144Z" fill="black"/>
<circle cx="97" cy="20" r="18.75" transform="rotate(-180 97 20)" fill="white" stroke="#01B928" stroke-width="2.5"/>
<line x1="91.4142" y1="20.5043" x2="95" y2="24.0901" stroke="black" stroke-width="2" stroke-linecap="square"/>
<line x1="1" y1="-1" x2="11.9985" y2="-1" transform="matrix(-0.707103 0.70711 -0.707103 -0.70711 102.877 15)" stroke="black" stroke-width="2" stroke-linecap="square"/>
<circle cx="291" cy="20" r="18.75" transform="rotate(-180 291 20)" fill="white" stroke="#01B928" stroke-width="2.5"/>
<line x1="285.414" y1="20.5043" x2="289" y2="24.0901" stroke="black" stroke-width="2" stroke-linecap="square"/>
<line x1="1" y1="-1" x2="11.9985" y2="-1" transform="matrix(-0.707103 0.70711 -0.707103 -0.70711 296.877 15)" stroke="black" stroke-width="2" stroke-linecap="square"/>
</svg>
