<svg width="114" height="100" viewBox="0 0 120 91" fill="none" xmlns="http://www.w3.org/2000/svg">
<path d="M113.67 61.6713L101.456 38.1281C101.142 37.523 100.621 37.0072 99.9556 36.6449C99.2904 36.2825 98.5111 36.0896 97.7143 36.0899H85.5V29.3633C85.5 28.4713 85.0711 27.6158 84.3075 26.9851C83.544 26.3543 82.5084 26 81.4286 26H52.9286V32.7266H77.3571V74.9564C75.5019 75.8463 73.8783 77.0308 72.58 78.4416C71.2816 79.8524 70.3342 81.4615 69.7924 83.1763H44.2076C43.3219 80.2898 41.2964 77.7296 38.4515 75.9009C35.6066 74.0721 32.1048 73.0792 28.5 73.0792C24.8953 73.0792 21.3934 74.0721 18.5485 75.9009C15.7036 77.7296 13.6781 80.2898 12.7924 83.1763H8.14286V52.9065H0V86.5396C0 87.4316 0.428953 88.2871 1.19249 88.9178C1.95603 89.5486 2.99162 89.9029 4.07143 89.9029H12.7924C13.6781 92.7894 15.7036 95.3496 18.5485 97.1783C21.3934 99.0071 24.8953 100 28.5 100C32.1048 100 35.6066 99.0071 38.4515 97.1783C41.2964 95.3496 43.3219 92.7894 44.2076 89.9029H69.7924C70.6781 92.7894 72.7036 95.3496 75.5485 97.1783C78.3934 99.0071 81.8953 100 85.5 100C89.1048 100 92.6066 99.0071 95.4515 97.1783C98.2964 95.3496 100.322 92.7894 101.208 89.9029H109.929C111.008 89.9029 112.044 89.5486 112.808 88.9178C113.571 88.2871 114 87.4316 114 86.5396V62.9964C114 62.5408 113.888 62.0899 113.67 61.6713ZM28.5 93.2662C26.8895 93.2662 25.3152 92.8717 23.9761 92.1326C22.637 91.3935 21.5933 90.3429 20.977 89.1138C20.3607 87.8846 20.1994 86.5321 20.5136 85.2273C20.8278 83.9225 21.6033 82.7239 22.7421 81.7832C23.8809 80.8424 25.3319 80.2018 26.9114 79.9422C28.491 79.6827 30.1282 79.8159 31.6161 80.325C33.104 80.8341 34.3758 81.6963 35.2705 82.8025C36.1653 83.9087 36.6429 85.2092 36.6429 86.5396C36.6396 88.3228 35.7807 90.0322 34.2543 91.2931C32.7279 92.554 30.6586 93.2636 28.5 93.2662ZM85.5 42.8166H95.0271L103.756 59.6331H85.5V42.8166ZM85.5 93.2662C83.8895 93.2662 82.3152 92.8717 80.9761 92.1326C79.637 91.3935 78.5933 90.3429 77.977 89.1138C77.3607 87.8846 77.1994 86.5321 77.5136 85.2273C77.8278 83.9225 78.6033 82.7239 79.7421 81.7832C80.8809 80.8424 82.3319 80.2018 83.9114 79.9422C85.491 79.6827 87.1282 79.8159 88.6161 80.325C90.1041 80.8341 91.3758 81.6963 92.2705 82.8025C93.1653 83.9087 93.6429 85.2092 93.6429 86.5396C93.6407 88.3231 92.7821 90.033 91.2555 91.2941C89.7289 92.5552 87.659 93.2644 85.5 93.2662ZM105.857 83.1763H101.208C100.311 80.2954 98.282 77.7418 95.4393 75.9158C92.5967 74.0898 89.1009 73.0946 85.5 73.0864V66.3597H105.857V83.1763Z" fill="white"/>
<path d="M49.4724 12.8H33.1252V0H24.9517V12.8H8.60449V19.2H24.9517V32H33.1252V19.2H49.4724V12.8Z" fill="white"/>
</svg>
