<svg width="53" height="52" viewBox="0 0 53 52" fill="none" xmlns="http://www.w3.org/2000/svg">
<path fill-rule="evenodd" clip-rule="evenodd" d="M10.5557 18.1331C12.2556 16.4208 13.9555 15.8501 16.2213 16.9916C18.262 18.0192 19.384 18.1214 20.4142 18.132C21.4881 18.1214 22.6559 18.0192 24.7819 16.9916C27.1416 15.8501 28.9114 16.4208 30.6823 18.1331C32.7689 20.1521 33.4135 22.2541 33.6331 23.8418C33.6593 23.9696 33.6811 24.0973 33.7019 24.2251C32.9975 24.4255 32.3671 24.8191 31.886 25.359C31.4048 25.899 31.0931 26.5624 30.9881 27.2702C30.883 27.9781 30.9891 28.7004 31.2936 29.3511C31.5982 30.0018 32.0883 30.5534 32.7056 30.9401L32.6192 31.1562C32.1866 30.8577 31.695 30.6501 31.1756 30.5466C30.6562 30.4432 30.1204 30.4461 29.6023 30.5552C29.0842 30.6644 28.595 30.8774 28.1658 31.1806C27.7366 31.4839 27.3768 31.8708 27.1092 32.3169C26.8416 32.7629 26.6721 33.2583 26.6114 33.7717C26.5508 34.285 26.6003 34.805 26.7568 35.2986C26.9134 35.7923 27.1735 36.2488 27.5207 36.6393C27.8679 37.0297 28.2946 37.3455 28.7738 37.5666C28.675 37.6859 28.5742 37.8034 28.4711 37.9191C27.5589 38.8444 26.5211 39.4376 25.3958 39.2565C21.8562 38.6847 21.2663 38.6847 20.6764 38.6847H20.1629C19.597 38.6847 19.03 38.6847 15.6313 39.2565C12.9111 39.7123 10.7261 35.2602 9.6424 32.9782C7.93815 29.3971 7.59839 25.7372 7.72293 23.8418C7.93378 22.253 8.55321 20.1521 10.5557 18.1342" fill="#BB3B3B"/>
<path fill-rule="evenodd" clip-rule="evenodd" d="M41.3972 19.6878C42.6243 20.117 43.6263 21.0038 44.1828 22.153C44.7392 23.3023 44.8045 24.6199 44.3643 25.8161C44.3293 25.9108 44.2824 25.9971 44.2256 26.0748C45.1168 26.8225 45.7037 27.8567 45.8801 28.9898C46.0565 30.123 45.8106 31.2803 45.1869 32.252C44.8802 32.7284 44.4901 33.1487 44.0344 33.4936C44.1329 34.4458 43.9354 35.4049 43.4674 36.2463C44.0762 36.5671 44.6087 37.0095 45.03 37.5448C45.4513 38.08 45.7519 38.6959 45.9121 39.3521C46.0724 40.0084 46.0887 40.6903 45.9599 41.3531C45.8312 42.0159 45.5603 42.6448 45.165 43.1985C44.7697 43.7522 44.2589 44.2184 43.666 44.5664C43.0731 44.9145 42.4115 45.1366 41.7245 45.2182C41.0375 45.2999 40.3406 45.2392 39.6793 45.0402C39.018 44.8411 38.4072 44.5083 37.887 44.0633C37.0562 44.7273 36.0252 45.1078 34.9515 45.1464C33.8779 45.1851 32.8208 44.8799 31.942 44.2775C31.0632 43.6752 30.411 42.8087 30.0852 41.8108C29.7595 40.8129 29.7781 39.7385 30.1381 38.7519C28.8819 38.686 27.6993 38.1531 26.8339 37.263C25.9685 36.3729 25.4862 35.1933 25.4862 33.9669C25.4862 32.7407 25.9685 31.561 26.8339 30.6709C27.6993 29.7808 28.8819 29.2479 30.1381 29.182C29.8666 28.437 29.7884 27.6379 29.9105 26.8562C30.0327 26.0745 30.3514 25.3345 30.8382 24.702C31.3251 24.0695 31.9649 23.5643 32.7008 23.2314C33.4366 22.8985 34.2455 22.7482 35.0554 22.794C35.0663 22.7227 35.0838 22.6503 35.11 22.5789C35.5505 21.383 36.4603 20.4065 37.6394 19.8644C38.8184 19.3222 40.1701 19.2587 41.3972 19.6878ZM39.2308 42.3766C39.524 42.6523 39.8768 42.8607 40.2633 42.9863C40.6498 43.1119 41.0603 43.1516 41.4646 43.1025C41.8689 43.0535 42.2569 42.9169 42.6 42.7027C42.9431 42.4885 43.2327 42.2022 43.4476 41.8648C43.6625 41.5274 43.7972 41.1474 43.8419 40.7527C43.8865 40.3579 43.84 39.9584 43.7058 39.5835C43.5715 39.2085 43.3528 38.8676 43.0658 38.5857C42.7789 38.3038 42.4308 38.0881 42.0472 37.9543C42.01 37.9413 41.9735 37.9264 41.9379 37.9096C41.2114 38.3994 40.3429 38.7039 39.4056 38.7529C39.588 39.2534 39.6874 39.7943 39.6874 40.3566C39.6874 41.0785 39.5236 41.7622 39.2308 42.3766ZM39.4056 29.1831C40.1649 29.2224 40.9045 29.433 41.5661 29.7983C42.2278 30.1636 42.7933 30.6737 43.2183 31.2883C43.4771 30.9453 43.6483 30.547 43.7176 30.1266C43.7981 29.6326 43.7343 29.1266 43.5335 28.6664C43.3326 28.2062 43.0028 27.8104 42.5818 27.5245C42.1609 27.2385 41.6658 27.0739 41.1533 27.0496C40.6408 27.0252 40.1317 27.142 39.6842 27.3867C39.7096 27.997 39.6151 28.6075 39.4056 29.1831ZM39.0964 25.2975C40.1133 24.8772 41.2456 24.8022 42.3115 25.0845C42.5522 24.42 42.5127 23.6896 42.2017 23.0534C41.8908 22.4173 41.3337 21.9272 40.6527 21.6907C39.9716 21.4542 39.2222 21.4906 38.5686 21.7918C37.915 22.093 37.4106 22.6346 37.166 23.2977C37.1565 23.3236 37.1459 23.3492 37.1343 23.3744C37.964 23.8188 38.645 24.4864 39.0964 25.2975ZM34.7713 24.9163C34.047 24.9163 33.3523 25.1967 32.8401 25.696C32.3279 26.1952 32.0401 26.8723 32.0401 27.5784C32.0401 28.2844 32.3279 28.9615 32.8401 29.4608C33.3523 29.96 34.047 30.2405 34.7713 30.2405C35.4957 30.2405 36.1904 29.96 36.7025 29.4608C37.2147 28.9615 37.5025 28.2844 37.5025 27.5784C37.5025 26.8723 37.2147 26.1952 36.7025 25.696C36.1904 25.1967 35.4957 24.9163 34.7713 24.9163ZM30.4014 31.3054C29.6771 31.3054 28.9824 31.5858 28.4702 32.0851C27.958 32.5843 27.6703 33.2614 27.6703 33.9675C27.6703 34.6735 27.958 35.3506 28.4702 35.8499C28.9824 36.3491 29.6771 36.6296 30.4014 36.6296C31.1258 36.6296 31.8205 36.3491 32.3327 35.8499C32.8449 35.3506 33.1326 34.6735 33.1326 33.9675C33.1326 33.2614 32.8449 32.5843 32.3327 32.0851C31.8205 31.5858 31.1258 31.3054 30.4014 31.3054ZM36.41 33.9675C36.41 33.2614 36.6978 32.5843 37.21 32.0851C37.7222 31.5858 38.4168 31.3054 39.1412 31.3054C39.8655 31.3054 40.5602 31.5858 41.0724 32.0851C41.5846 32.5843 41.8724 33.2614 41.8724 33.9675C41.8724 34.6735 41.5846 35.3506 41.0724 35.8499C40.5602 36.3491 39.8655 36.6296 39.1412 36.6296C38.4168 36.6296 37.7222 36.3491 37.21 35.8499C36.6978 35.3506 36.41 34.6735 36.41 33.9675ZM34.7713 37.6945C34.047 37.6945 33.3523 37.9749 32.8401 38.4742C32.3279 38.9734 32.0401 39.6505 32.0401 40.3566C32.0401 41.0626 32.3279 41.7397 32.8401 42.239C33.3523 42.7382 34.047 43.0187 34.7713 43.0187C35.4957 43.0187 36.1904 42.7382 36.7025 42.239C37.2147 41.7397 37.5025 41.0626 37.5025 40.3566C37.5025 39.6505 37.2147 38.9734 36.7025 38.4742C36.1904 37.9749 35.4957 37.6945 34.7713 37.6945ZM8.31714 8.94458H9.55491C12.6575 8.94458 15.5788 10.3044 17.7113 12.1093C18.4047 12.6937 19.033 13.3475 19.586 14.0601V11.6759C19.586 11.3935 19.7011 11.1227 19.906 10.923C20.1108 10.7233 20.3887 10.6111 20.6784 10.6111C20.9682 10.6111 21.2461 10.7233 21.4509 10.923C21.6558 11.1227 21.7709 11.3935 21.7709 11.6759V18.7039C21.7711 18.8648 21.7339 19.0236 21.662 19.1684C21.5901 19.3132 21.4854 19.4402 21.3558 19.5398V19.592H21.2815C21.1025 19.7082 20.8921 19.77 20.677 19.7697C20.4619 19.7693 20.2518 19.7067 20.0732 19.5899C17.4076 19.543 14.7288 18.5325 12.6204 16.9107C10.4617 15.2496 8.82295 12.8856 8.47118 10.1404L8.31714 8.94458ZM18.9644 17.3675C18.5776 16.2058 17.6578 14.8843 16.2791 13.7172C14.7933 12.4607 12.9143 11.5034 10.9434 11.1872C11.4711 12.744 12.5526 14.1464 13.974 15.24C15.4302 16.3591 17.1935 17.113 18.9644 17.3675Z" fill="#BB3B3B"/>
<path fill-rule="evenodd" clip-rule="evenodd" d="M41.5317 10.1616L41.7305 11.3521C42.2276 14.3369 41.3187 17.3664 39.8318 19.7069C38.3701 22.0091 36.1895 23.8811 33.9161 24.2411L32.8378 24.4114L32.663 23.3615C32.226 20.7366 32.8182 17.9201 34.1532 15.5774C35.4893 13.2348 37.6218 11.2797 40.3442 10.5013L41.5317 10.1616ZM39.6811 13.0474C38.1898 13.8055 36.9422 15.0706 36.0628 16.6125C35.1626 18.1927 34.6797 20.0093 34.707 21.7557C35.8214 21.1967 37.0122 20.0999 37.9735 18.5856C39.0092 16.9564 39.6767 14.9939 39.6822 13.0484" fill="#BB3B3B"/>
</svg>
