<svg width="32" height="37" viewBox="0 0 32 37" fill="none" xmlns="http://www.w3.org/2000/svg">
<path d="M16.1315 6.7275C12.0646 6.7275 8.59254 8.54457 7.71709 12.3002C7.45252 13.4248 7.26401 14.5717 7.15329 15.7303H25.1097C24.9991 14.5737 24.8111 13.4289 24.5472 12.3063C23.6717 8.54607 20.2022 6.7275 16.1315 6.7275ZM26.4765 18.7313H5.78645C5.78645 21.9149 6.87637 24.9681 8.81644 27.2192C10.7565 29.4703 13.3878 30.735 16.1315 30.735C18.8752 30.735 21.5065 29.4703 23.4465 27.2192C25.3866 24.9681 26.4765 21.9149 26.4765 18.7313ZM4.55539 15.7303C4.65884 14.4009 4.88773 12.9409 5.22006 11.5155C6.5688 5.73869 11.6883 3.72656 16.1315 3.72656C20.5798 3.72656 25.6968 5.74169 27.0442 11.523C27.3752 12.9455 27.6041 14.4039 27.7076 15.7303H29.0628V18.7313C29.0628 27.0184 23.2734 33.736 16.1315 33.736C8.98953 33.736 3.2002 27.0184 3.2002 18.7313V15.7303H4.55539ZM14.8358 8.22497H17.4272V11.2319H14.8358V8.22497ZM10.9564 11.2259H13.5478V14.2329H10.9564V11.2259ZM18.7152 11.2259H21.3066V14.2329H18.7152V11.2259Z" fill="#9B36BE"/>
</svg>
