<svg width="45" height="45" viewBox="0 0 45 45" fill="none" xmlns="http://www.w3.org/2000/svg">
<path d="M22.1315 21.5689C20.9193 21.5689 19.7568 21.0845 18.8996 20.2221C18.0425 19.3598 17.561 18.1902 17.561 16.9707C17.561 15.7512 18.0425 14.5816 18.8996 13.7193C19.7568 12.8569 20.9193 12.3725 22.1315 12.3725C23.3437 12.3725 24.5062 12.8569 25.3634 13.7193C26.2205 14.5816 26.702 15.7512 26.702 16.9707C26.702 17.5745 26.5838 18.1725 26.3541 18.7304C26.1244 19.2882 25.7878 19.7951 25.3634 20.2221C24.9389 20.6491 24.4351 20.9878 23.8806 21.2189C23.326 21.45 22.7317 21.5689 22.1315 21.5689ZM22.1315 4.0957C18.7374 4.0957 15.4823 5.45217 13.0823 7.8667C10.6823 10.2812 9.33398 13.556 9.33398 16.9707C9.33398 26.627 22.1315 40.8814 22.1315 40.8814C22.1315 40.8814 34.929 26.627 34.929 16.9707C34.929 13.556 33.5807 10.2812 31.1807 7.8667C28.7807 5.45217 25.5256 4.0957 22.1315 4.0957Z" fill="#3D8D4E"/>
</svg>
