<svg width="43" height="41" viewBox="0 0 43 41" fill="none" xmlns="http://www.w3.org/2000/svg">
<g clip-path="url(#clip0_64_443)">
<path d="M32.8214 6.24523C32.8638 5.97678 32.8671 5.70833 32.9551 5.46765C33.1116 5.048 33.2518 4.5975 33.5225 4.24573C33.8779 3.78906 34.4387 3.8014 35.0778 4.17476C35.1985 3.91557 35.2637 3.61318 35.4495 3.40952C35.7919 3.03308 36.1506 2.62269 36.5973 2.39126C37.2331 2.0611 37.6538 2.32338 38.1135 3.19662C38.8178 2.93125 39.5808 2.37275 40.2819 3.07628C40.934 3.73043 40.4221 4.41236 40.083 5.08194C40.2297 5.14674 40.3504 5.1992 40.471 5.25783C41.1003 5.56022 41.3318 6.17426 40.8558 6.72351C40.396 7.25424 39.7439 7.63377 39.157 8.09353C39.8026 9.08094 39.3232 9.55921 37.0603 10.0776C36.9919 10.4756 37.044 10.9015 36.8516 11.1607C36.5386 11.5772 36.0006 11.497 35.5245 11.3551C34.5692 11.0712 33.6627 11.2039 32.8084 11.6575C32.0878 12.0432 31.3867 12.4659 30.7378 12.9503C31.7063 12.7775 32.6649 12.5245 33.6431 12.4505C34.7518 12.3671 35.8734 12.4196 36.9886 12.4721C37.2625 12.4844 37.5168 12.7405 37.7907 12.8639C38.0125 12.9627 38.244 13.046 38.4787 13.1046C39.2678 13.2959 39.4374 13.4934 39.4211 14.2586C40.0471 14.4993 40.4025 14.8758 40.0341 15.5639C39.9982 15.6287 40.083 15.7644 40.1352 15.8539C40.1939 15.9527 40.2852 16.0298 40.3536 16.1224C40.7253 16.6192 41.0449 17.1653 40.6797 17.7454C40.2949 18.3595 39.6069 18.3996 38.9222 18.3224C38.7461 18.3039 38.5733 18.27 38.407 18.2453C38.0809 19.0599 37.6114 19.1957 36.8712 18.6773C36.5549 18.4551 36.2875 18.1651 35.9973 17.9059C35.0452 18.594 34.7094 18.4613 33.9072 17.0604C33.0106 17.3474 32.6747 17.1715 32.4106 16.289C32.1823 15.5268 31.8693 15.1998 31.015 15.2214C30.34 15.2399 29.6716 15.4806 29.0064 15.6503C28.8043 15.7027 28.6314 15.8478 28.5499 15.8015L26.7435 14.0735C26.8772 13.7865 27.1315 13.336 27.2946 12.8609C27.4022 12.5461 27.4282 12.1913 27.4119 11.858C27.3663 10.994 27.0924 10.704 26.2088 10.4633C25.3284 10.2257 25.1066 9.82149 25.4621 9.13339C25.0708 8.84643 24.6338 8.60575 24.311 8.26633C23.8937 7.82817 24.1219 7.43012 24.5914 7.15241C24.2295 6.73276 23.8252 6.381 23.5774 5.95209C23.222 5.34114 23.4176 5.03566 24.2034 4.84743C24.1708 4.63761 24.1252 4.4247 24.1056 4.20562C24.0534 3.60083 24.1186 2.99605 24.7219 2.65354C25.2892 2.32955 25.8566 2.56097 26.3392 2.89731C26.6816 3.1349 26.9457 3.32004 27.438 3.16576C27.9793 2.99605 28.2467 3.43421 28.413 3.85077C29.2086 3.823 29.4205 3.97728 29.6194 4.67464C29.714 5.00172 29.6749 5.37508 30.1085 5.57565C30.2455 5.63736 30.2911 5.93975 30.3172 6.14032C30.5553 7.96085 30.4509 9.76287 29.8901 11.5279C29.8379 11.6883 29.7988 11.8518 29.7564 12.0123C29.7531 12.0216 29.7759 12.0401 29.8444 12.1203C30.852 10.6515 32.1204 9.31853 31.4552 7.36223C31.403 7.20487 31.3769 7.0259 31.3932 6.85927C31.4682 6.13415 31.928 5.92741 32.8214 6.24523Z" fill="#0F9D58"/>
<path d="M31.1424 17.6776C30.6011 15.1073 27.2361 12.6511 24.5297 12.2376C20.806 11.4508 18.6996 13.6077 16.8279 15.9188C16.704 16.07 16.7432 16.2891 16.9095 16.3971C17.5257 16.7982 18.1387 17.2302 18.742 17.6961C19.0583 17.9399 18.7452 18.412 18.3768 18.2454C17.5942 17.8936 16.8377 17.5665 16.1041 17.2641C15.9541 17.2024 15.778 17.2456 15.6769 17.3721C13.5281 20.0999 11.4315 22.8646 9.32835 25.6232C9.21423 25.7744 9.2501 25.9811 9.40661 26.0891C9.79789 26.3606 10.1892 26.6414 10.5739 26.9376C10.8967 27.1845 10.5805 27.6628 10.2055 27.4931C9.70659 27.2678 9.21749 27.0549 8.73491 26.8482C8.58165 26.7834 8.40558 26.8296 8.30449 26.9592C6.98718 28.6749 5.63073 30.3627 4.32971 32.0876C2.51351 34.4913 0.932072 37.8207 1.80594 39.0118C2.60155 40.101 6.58611 39.4993 9.50443 37.3147C10.3 36.7191 11.1511 36.1915 11.9826 35.6392C12.1228 35.5466 12.1717 35.3738 12.1032 35.2257C11.901 34.8029 11.6891 34.374 11.4706 33.9359C11.2945 33.5841 11.7934 33.2879 12.051 33.5903C12.3445 33.9297 12.6249 34.2753 12.8923 34.6209C13.0064 34.769 13.2216 34.8029 13.3814 34.695C16.3062 32.7294 19.2441 30.7793 22.2016 28.86C22.3418 28.7705 22.3939 28.6008 22.3255 28.4527C21.9961 27.7368 21.6407 26.9963 21.256 26.231C21.0799 25.8824 21.5788 25.5861 21.8364 25.8854C22.3613 26.4964 22.8504 27.1197 23.3004 27.7461C23.4113 27.9004 23.6297 27.9405 23.7895 27.8356C24.5232 27.3635 25.2536 26.8883 25.9905 26.4193C29.3327 24.2902 31.5728 21.7291 31.1424 17.6776Z" fill="#F57C00"/>
</g>
<defs>
<clipPath id="clip0_64_443">
<rect width="41.7368" height="39.4962" fill="white" transform="translate(0.543945 0.894775)"/>
</clipPath>
</defs>
</svg>
