<svg width="102" height="102" viewBox="0 0 102 102" fill="none" xmlns="http://www.w3.org/2000/svg">
<circle cx="51" cy="51" r="51" fill="url(#paint0_radial_1115_663)"/>
<circle cx="51" cy="51" r="34" fill="#BEF3C9"/>
<path d="M55.25 54.125C55.25 56.2062 53.5812 57.875 51.5 57.875C50.5054 57.875 49.5516 57.4799 48.8484 56.7766C48.1451 56.0734 47.75 55.1196 47.75 54.125C47.75 52.0438 49.4187 50.375 51.5 50.375C52.4946 50.375 53.4484 50.7701 54.1516 51.4734C54.8549 52.1766 55.25 53.1304 55.25 54.125ZM53.5438 63.5C53.7688 64.85 54.2375 66.1063 54.8938 67.25H40.25C39.2554 67.25 38.3016 66.8549 37.5983 66.1516C36.8951 65.4484 36.5 64.4946 36.5 63.5V44.75C36.5 42.6687 38.1687 41 40.25 41H42.125V37.25C42.125 32.075 46.325 27.875 51.5 27.875C56.675 27.875 60.875 32.075 60.875 37.25V41H62.75C63.7446 41 64.6984 41.3951 65.4016 42.0984C66.1049 42.8016 66.5 43.7554 66.5 44.75V50.5438C65.8813 50.45 65.2625 50.375 64.625 50.375C63.9875 50.375 63.3687 50.45 62.75 50.5438V44.75H40.25V63.5H53.5438ZM45.875 41H57.125V37.25C57.125 34.1375 54.6125 31.625 51.5 31.625C48.3875 31.625 45.875 34.1375 45.875 37.25V41ZM69.0125 55.7L62.2812 62.4313L59.3 59.45L57.125 61.625L62.2812 67.25L71.1875 58.3438L69.0125 55.7Z" fill="#00BA29"/>
<defs>
<radialGradient id="paint0_radial_1115_663" cx="0" cy="0" r="1" gradientUnits="userSpaceOnUse" gradientTransform="translate(51 51) rotate(90) scale(51)">
<stop offset="0.51" stop-color="#D9D9D9"/>
<stop offset="1" stop-color="#D9D9D9" stop-opacity="0"/>
</radialGradient>
</defs>
</svg>
