<svg width="11" height="11" viewBox="0 0 11 11" fill="none" xmlns="http://www.w3.org/2000/svg">
<path d="M2.77671 5.7288C2.87331 5.70096 2.9772 5.68648 3.08222 5.68622C3.18725 5.68597 3.29128 5.69994 3.38818 5.7273C3.48507 5.75467 3.57286 5.79488 3.64636 5.84555C3.71985 5.89623 3.77756 5.95634 3.81606 6.02234C3.85457 6.08833 3.8731 6.15887 3.87055 6.22979C3.868 6.30071 3.84443 6.37056 3.80122 6.43521C3.75802 6.49987 3.69606 6.55802 3.61901 6.60623C3.54197 6.65443 3.45139 6.69172 3.35264 6.71588C2.82743 6.85565 2.37665 7.09895 2.05897 7.41414C1.74129 7.72932 1.5714 8.10178 1.57143 8.48307V9.40646C1.57143 9.54721 1.65421 9.6822 1.80156 9.78172C1.94891 9.88124 2.14876 9.93715 2.35714 9.93715H8.64286C8.85124 9.93715 9.05109 9.88124 9.19844 9.78172C9.34579 9.6822 9.42857 9.54721 9.42857 9.40646V8.53242C9.42866 8.1389 9.25168 7.75466 8.92108 7.43062C8.59049 7.10659 8.1219 6.85806 7.57743 6.718C7.47807 6.69471 7.38664 6.65818 7.30857 6.61059C7.23049 6.56299 7.16736 6.50529 7.12291 6.44091C7.07847 6.37653 7.05361 6.30677 7.04982 6.23578C7.04602 6.16479 7.06337 6.09401 7.10083 6.02763C7.13829 5.96125 7.1951 5.90063 7.26789 5.84935C7.34068 5.79808 7.42797 5.7572 7.52459 5.72913C7.6212 5.70106 7.72518 5.68638 7.83035 5.68596C7.93553 5.68554 8.03975 5.69938 8.13686 5.72667C8.97883 5.94329 9.70348 6.32759 10.2148 6.82865C10.7261 7.32971 10.9999 7.92388 11 8.53242V9.40646C11 9.82871 10.7517 10.2337 10.3096 10.5322C9.86756 10.8308 9.26801 10.9985 8.64286 10.9985H2.35714C1.73199 10.9985 1.13244 10.8308 0.690391 10.5322C0.248341 10.2337 0 9.82871 0 9.40646L0 8.48307C0.000108115 7.88878 0.265003 7.30827 0.760227 6.81705C1.25545 6.32583 1.95808 5.94663 2.77671 5.7288ZM5.5 0.384766C6.33354 0.384766 7.13294 0.608412 7.72234 1.00651C8.31174 1.4046 8.64286 1.94453 8.64286 2.50752V3.56889C8.64286 4.13188 8.31174 4.67181 7.72234 5.06991C7.13294 5.468 6.33354 5.69165 5.5 5.69165C4.66646 5.69165 3.86706 5.468 3.27766 5.06991C2.68826 4.67181 2.35714 4.13188 2.35714 3.56889V2.50752C2.35714 1.94453 2.68826 1.4046 3.27766 1.00651C3.86706 0.608412 4.66646 0.384766 5.5 0.384766ZM5.5 1.44614C5.08323 1.44614 4.68353 1.55797 4.38883 1.75701C4.09413 1.95606 3.92857 2.22602 3.92857 2.50752V3.56889C3.92857 3.85039 4.09413 4.12035 4.38883 4.3194C4.68353 4.51845 5.08323 4.63027 5.5 4.63027C5.91677 4.63027 6.31647 4.51845 6.61117 4.3194C6.90587 4.12035 7.07143 3.85039 7.07143 3.56889V2.50752C7.07143 2.22602 6.90587 1.95606 6.61117 1.75701C6.31647 1.55797 5.91677 1.44614 5.5 1.44614Z" fill="#5BBE39"/>
</svg>
