<svg width="50" height="50" viewBox="0 0 50 50" fill="none" xmlns="http://www.w3.org/2000/svg">
<path d="M25.0002 41.6666C23.8543 41.6666 22.8738 41.2589 22.0585 40.4437C21.2432 39.6284 20.8349 38.6471 20.8335 37.4999C20.8335 36.3541 21.2418 35.3735 22.0585 34.5583C22.8752 33.743 23.8557 33.3346 25.0002 33.3333C26.146 33.3333 27.1272 33.7416 27.9439 34.5583C28.7606 35.3749 29.1682 36.3555 29.1668 37.4999C29.1668 38.6458 28.7592 39.627 27.9439 40.4437C27.1286 41.2603 26.1474 41.668 25.0002 41.6666ZM25.0002 29.1666C23.8543 29.1666 22.8738 28.7589 22.0585 27.9437C21.2432 27.1284 20.8349 26.1471 20.8335 24.9999C20.8335 23.8541 21.2418 22.8735 22.0585 22.0583C22.8752 21.243 23.8557 20.8346 25.0002 20.8333C26.146 20.8333 27.1272 21.2416 27.9439 22.0583C28.7606 22.8749 29.1682 23.8555 29.1668 24.9999C29.1668 26.1458 28.7592 27.127 27.9439 27.9437C27.1286 28.7603 26.1474 29.168 25.0002 29.1666ZM25.0002 16.6666C23.8543 16.6666 22.8738 16.2589 22.0585 15.4437C21.2432 14.6284 20.8349 13.6471 20.8335 12.4999C20.8335 11.3541 21.2418 10.3735 22.0585 9.55825C22.8752 8.74297 23.8557 8.33464 25.0002 8.33325C26.146 8.33325 27.1272 8.74158 27.9439 9.55825C28.7606 10.3749 29.1682 11.3555 29.1668 12.4999C29.1668 13.6458 28.7592 14.627 27.9439 15.4437C27.1286 16.2603 26.1474 16.668 25.0002 16.6666Z" fill="black"/>
</svg>
