<svg width="114" height="100" viewBox="0 0 120 91" fill="none" xmlns="http://www.w3.org/2000/svg">
<path fill-rule="evenodd" clip-rule="evenodd" d="M49.5 90.3268C74.1042 90.3268 94.05 71.4964 94.05 48.268C94.05 25.0397 74.1042 6.20932 49.5 6.20932C24.8958 6.20932 4.95 25.0397 4.95 48.268C4.95 71.4964 24.8958 90.3268 49.5 90.3268ZM49.5 94.9999C76.8381 94.9999 99 74.0774 99 48.268C99 22.4587 76.8381 1.53613 49.5 1.53613C22.1619 1.53613 0 22.4587 0 48.268C0 74.0774 22.1619 94.9999 49.5 94.9999Z" fill="white"/>
<path fill-rule="evenodd" clip-rule="evenodd" d="M17.4832 83.9635C15.8689 82.2354 15.8689 79.4333 17.4832 77.7052L75.9324 15.122C77.5463 13.3939 80.1633 13.3939 81.7773 15.122C83.3912 16.8501 83.3912 19.6521 81.7773 21.3802L23.3281 83.9635C21.7137 85.6915 19.0972 85.6915 17.4832 83.9635Z" fill="white" fill-opacity="0.75"/>
<path fill-rule="evenodd" clip-rule="evenodd" d="M17.4829 15.122C19.0973 13.3939 21.7138 13.3939 23.3282 15.122L81.7773 77.7052C83.3912 79.4333 83.3912 82.2354 81.7773 83.9635C80.1633 85.6915 77.5463 85.6915 75.9324 83.9635L17.4829 21.3802C15.869 19.6521 15.869 16.8501 17.4829 15.122Z" fill="white" fill-opacity="0.75"/>
<path d="M49.5 0C22.1645 0 0 20.925 0 46.7319C0 72.5388 22.1645 93.4638 49.5 93.4638C76.8355 93.4638 99 72.5388 99 46.7319C99 20.925 76.8355 0 49.5 0ZM49.5 85.5361C26.8051 85.5361 8.39732 68.1577 8.39732 46.7319C8.39732 25.3062 26.8051 7.92773 49.5 7.92773C72.1949 7.92773 90.6027 25.3062 90.6027 46.7319C90.6027 68.1577 72.1949 85.5361 49.5 85.5361ZM54.7704 44.3119L51.964 43.6964V29.6873C56.1626 30.2297 58.7592 32.7123 59.2011 35.7583C59.2564 36.1755 59.632 36.478 60.074 36.478H65.035C65.5544 36.478 65.9632 36.0503 65.919 35.5601C65.245 29.0614 59.5768 24.8889 52.0082 24.1692V20.7581C52.0082 20.2992 51.6104 19.9236 51.1242 19.9236H48.0194C47.5333 19.9236 47.1355 20.2992 47.1355 20.7581V24.2005C39.3127 24.9202 33.1915 28.9988 33.1915 36.6136C33.1915 43.6651 38.694 47.0657 44.4727 48.3696L47.2018 49.0268V63.9121C42.3181 63.2967 39.5779 60.8349 39.0144 57.5178C38.9481 57.1214 38.5724 56.8293 38.1415 56.8293H33.0368C32.5175 56.8293 32.1087 57.2466 32.1529 57.7369C32.6501 63.474 37.2576 68.7522 47.0913 69.4303V72.7057C47.0913 73.1646 47.4891 73.5402 47.9752 73.5402H51.1132C51.5993 73.5402 51.9971 73.1646 51.9971 72.6952L51.975 69.3885C60.6265 68.6688 66.814 64.2981 66.814 56.4538C66.8029 49.2145 61.9302 45.9809 54.7704 44.3119ZM47.1907 42.622C46.572 42.4551 46.0527 42.2986 45.5334 42.1004C41.7988 40.8278 40.0641 38.7729 40.0641 36.1233C40.0641 32.3368 43.1026 30.1775 47.1907 29.6873V42.622ZM51.964 63.9434V49.9969C52.3065 50.0908 52.6158 50.1638 52.9363 50.2264C58.1625 51.7285 59.9193 53.8147 59.9193 57.0171C59.9193 61.0957 56.6709 63.5471 51.964 63.9434Z" fill="white"/>
</svg>
