<svg width="114" height="100" viewBox="0 0 120 91" fill="none" xmlns="http://www.w3.org/2000/svg">
<path d="M10 30.3334H110M10 22.7501C10 20.7389 11.0536 18.81 12.9289 17.3879C14.8043 15.9657 17.3478 15.1667 20 15.1667H100C102.652 15.1667 105.196 15.9657 107.071 17.3879C108.946 18.81 110 20.7389 110 22.7501V68.2501C110 70.2613 108.946 72.1902 107.071 73.6123C105.196 75.0345 102.652 75.8334 100 75.8334H20C17.3478 75.8334 14.8043 75.0345 12.9289 73.6123C11.0536 72.1902 10 70.2613 10 68.2501V45.5001V22.7501Z" stroke="white" stroke-width="6" stroke-linecap="round" stroke-linejoin="round"/>
<path d="M10 45.5H45C45 49.2917 48 56.875 60 56.875C72 56.875 75 49.2917 75 45.5H110" stroke="white" stroke-width="6" stroke-linecap="round" stroke-linejoin="round"/>
</svg>
