<svg width="22" height="21" viewBox="0 0 22 21" fill="none" xmlns="http://www.w3.org/2000/svg">
<path d="M16.7318 15.084L21.202 19.5028L19.7252 20.963L15.256 16.5432C13.5931 17.8612 11.5247 18.5781 9.39344 18.5751C4.20826 18.5751 0 14.4143 0 9.28756C0 4.16083 4.20826 0 9.39344 0C14.5786 0 18.7869 4.16083 18.7869 9.28756C18.7899 11.3948 18.0649 13.4399 16.7318 15.084ZM14.6381 14.3183C15.9627 12.9715 16.7024 11.1661 16.6995 9.28756C16.6995 5.297 13.4295 2.0639 9.39344 2.0639C5.35739 2.0639 2.08743 5.297 2.08743 9.28756C2.08743 13.2781 5.35739 16.5112 9.39344 16.5112C11.2935 16.5142 13.1194 15.7828 14.4816 14.4731L14.6381 14.3183Z" fill="white"/>
</svg>
