<svg width="103" height="79" viewBox="0 0 103 79" fill="none" xmlns="http://www.w3.org/2000/svg">
<path d="M78.4166 39.5615C78.4166 60.8996 60.9963 78.2035 39.4999 78.2035C18.0035 78.2035 0.583252 60.8996 0.583252 39.5615C0.583252 18.2234 18.0035 0.919556 39.4999 0.919556C60.9963 0.919556 78.4166 18.2234 78.4166 39.5615Z" fill="white" stroke="black"/>
<path d="M90.698 39.4587V43.5368H67.3074V39.4587H90.698ZM81.1824 29.4978V54.3415H76.8464V29.4978H81.1824Z" fill="black"/>
<g filter="url(#filter0_d_381_617)">
<path d="M28.0762 39.0016C28.4663 38.8538 28.8858 38.777 29.3099 38.7756C29.734 38.7743 30.1541 38.8484 30.5454 38.9937C30.9366 39.1389 31.2911 39.3524 31.5879 39.6214C31.8847 39.8904 32.1177 40.2095 32.2732 40.5598C32.4287 40.9101 32.5035 41.2846 32.4932 41.661C32.4829 42.0375 32.3877 42.4082 32.2132 42.7515C32.0388 43.0947 31.7886 43.4034 31.4775 43.6592C31.1664 43.9151 30.8006 44.1131 30.4019 44.2413C28.281 44.9832 26.4608 46.2748 25.178 47.9478C23.8951 49.6209 23.2092 51.598 23.2093 53.622V58.5237C23.2093 59.2708 23.5435 59.9873 24.1385 60.5156C24.7335 61.0439 25.5405 61.3407 26.382 61.3407H51.7639C52.6054 61.3407 53.4124 61.0439 54.0074 60.5156C54.6024 59.9873 54.9367 59.2708 54.9367 58.5237V53.884C54.937 51.7951 54.2224 49.7554 52.8874 48.0354C51.5525 46.3153 49.6603 44.9961 47.4617 44.2526C47.0605 44.1289 46.6913 43.935 46.376 43.6824C46.0608 43.4297 45.8058 43.1234 45.6264 42.7817C45.4469 42.4399 45.3465 42.0697 45.3312 41.6928C45.3159 41.316 45.3859 40.9402 45.5372 40.5879C45.6884 40.2355 45.9178 39.9137 46.2118 39.6416C46.5057 39.3694 46.8582 39.1524 47.2483 39.0034C47.6385 38.8544 48.0583 38.7765 48.483 38.7742C48.9077 38.772 49.3286 38.8455 49.7207 38.9903C53.1206 40.1402 56.0468 42.1801 58.1115 44.8399C60.1762 47.4997 61.2819 50.6537 61.2822 53.884V58.5237C61.2822 60.765 60.2794 62.9146 58.4943 64.4995C56.7093 66.0844 54.2883 66.9748 51.7639 66.9748H26.382C23.8576 66.9748 21.4366 66.0844 19.6516 64.4995C17.8666 62.9146 16.8638 60.765 16.8638 58.5237V53.622C16.8642 50.4674 17.9339 47.3859 19.9336 44.7783C21.9333 42.1708 24.7706 40.1579 28.0762 39.0016V39.0016ZM39.073 10.6341C42.4388 10.6341 45.6668 11.8212 48.0468 13.9344C50.4269 16.0476 51.7639 18.9137 51.7639 21.9022V27.5363C51.7639 30.5248 50.4269 33.3909 48.0468 35.5041C45.6668 37.6172 42.4388 38.8044 39.073 38.8044C35.7071 38.8044 32.4791 37.6172 30.0991 35.5041C27.7191 33.3909 26.382 30.5248 26.382 27.5363V21.9022C26.382 18.9137 27.7191 16.0476 30.0991 13.9344C32.4791 11.8212 35.7071 10.6341 39.073 10.6341V10.6341ZM39.073 16.2681C37.39 16.2681 35.776 16.8617 34.586 17.9183C33.396 18.9749 32.7275 20.408 32.7275 21.9022V27.5363C32.7275 29.0305 33.396 30.4636 34.586 31.5202C35.776 32.5768 37.39 33.1703 39.073 33.1703C40.7559 33.1703 42.3699 32.5768 43.5599 31.5202C44.7499 30.4636 45.4185 29.0305 45.4185 27.5363V21.9022C45.4185 20.408 44.7499 18.9749 43.5599 17.9183C42.3699 16.8617 40.7559 16.2681 39.073 16.2681Z" fill="black"/>
</g>
<defs>
<filter id="filter0_d_381_617" x="-3" y="5" width="84.1458" height="75.6088" filterUnits="userSpaceOnUse" color-interpolation-filters="sRGB">
<feFlood flood-opacity="0" result="BackgroundImageFix"/>
<feColorMatrix in="SourceAlpha" type="matrix" values="0 0 0 0 0 0 0 0 0 0 0 0 0 0 0 0 0 0 127 0" result="hardAlpha"/>
<feOffset dy="4"/>
<feGaussianBlur stdDeviation="2"/>
<feComposite in2="hardAlpha" operator="out"/>
<feColorMatrix type="matrix" values="0 0 0 0 0 0 0 0 0 0 0 0 0 0 0 0 0 0 0.25 0"/>
<feBlend mode="normal" in2="BackgroundImageFix" result="effect1_dropShadow_381_617"/>
<feBlend mode="normal" in="SourceGraphic" in2="effect1_dropShadow_381_617" result="shape"/>
</filter>
</defs>
</svg>
