<svg width="59" height="75" viewBox="0 0 59 75" fill="none" xmlns="http://www.w3.org/2000/svg">
<path d="M29.0256 74.9943C23.4858 74.9943 18.5734 74.0473 14.2884 72.1534C10.027 70.2358 6.66525 67.5961 4.20312 64.2344C1.741 60.8726 0.486269 57.0019 0.438921 52.6222H18.1236C18.1946 54.2083 18.7036 55.617 19.6506 56.848C20.5975 58.0554 21.8878 59.0024 23.5213 59.6889C25.1548 60.3755 27.0133 60.7188 29.0966 60.7188C31.1799 60.7188 33.0147 60.3518 34.6009 59.6179C36.2107 58.8603 37.4654 57.8305 38.3651 56.5284C39.2647 55.2027 39.7027 53.6875 39.679 51.983C39.7027 50.2784 39.2173 48.7633 38.223 47.4375C37.2287 46.1117 35.8201 45.0819 33.9972 44.348C32.1979 43.6141 30.0672 43.2472 27.6051 43.2472H20.5384V30.7472H27.6051C29.7595 30.7472 31.6534 30.392 33.2869 29.6818C34.9441 28.9716 36.2344 27.9773 37.1577 26.6989C38.081 25.3968 38.5308 23.9053 38.5071 22.2244C38.5308 20.5909 38.1402 19.1586 37.3352 17.9276C36.554 16.6728 35.4531 15.7022 34.0327 15.0156C32.6359 14.3291 31.0142 13.9858 29.1676 13.9858C27.2263 13.9858 25.4626 14.3291 23.8764 15.0156C22.3139 15.7022 21.071 16.6728 20.1477 17.9276C19.2244 19.1823 18.7391 20.6383 18.6918 22.2955H1.89489C1.94224 17.9631 3.14962 14.1515 5.51705 10.8608C7.88447 7.5464 11.1042 4.95407 15.1761 3.08381C19.2718 1.21354 23.9356 0.278406 29.1676 0.278406C34.3759 0.278406 38.9569 1.18986 42.9105 3.01278C46.8641 4.8357 49.9418 7.32149 52.1435 10.4702C54.3452 13.5952 55.446 17.1345 55.446 21.0881C55.4697 25.1837 54.1321 28.5573 51.4332 31.2088C48.758 33.8603 45.3134 35.4938 41.0994 36.1094V36.6776C46.7339 37.3404 50.9834 39.1634 53.848 42.1463C56.7363 45.1293 58.1686 48.858 58.1449 53.3324C58.1449 57.5464 56.902 61.2869 54.4162 64.554C51.9541 67.7973 48.5213 70.3542 44.1179 72.2244C39.7382 74.071 34.7074 74.9943 29.0256 74.9943Z" fill="white"/>
</svg>
