<svg width="56" height="74" viewBox="0 0 56 74" fill="none" xmlns="http://www.w3.org/2000/svg">
<path d="M1.36222 74V61.358L27.8892 38.1335C29.8778 36.3343 31.5705 34.6889 32.9673 33.1974C34.3641 31.6823 35.4295 30.1671 36.1634 28.652C36.8973 27.1132 37.2642 25.4441 37.2642 23.6449C37.2642 21.6326 36.8262 19.9162 35.9503 18.4957C35.0743 17.0516 33.867 15.9389 32.3281 15.1577C30.7893 14.3764 29.0256 13.9858 27.0369 13.9858C25.0246 13.9858 23.2609 14.4001 21.7457 15.2287C20.2306 16.0336 19.0469 17.2055 18.1946 18.7443C17.366 20.2831 16.9517 22.1534 16.9517 24.3551H0.296875C0.296875 19.4072 1.40956 15.134 3.63494 11.5355C5.86032 7.93703 8.98532 5.16714 13.0099 3.22585C17.0582 1.26089 21.7576 0.278406 27.108 0.278406C32.6241 0.278406 37.4181 1.2017 41.4901 3.04829C45.562 4.89489 48.7107 7.47538 50.9361 10.7898C53.1851 14.0805 54.3097 17.9039 54.3097 22.2599C54.3097 25.0298 53.7533 27.776 52.6406 30.4986C51.5279 33.2211 49.5275 36.2277 46.6392 39.5185C43.7746 42.8092 39.7027 46.7509 34.4233 51.3438L25.723 59.3693V59.831H55.1974V74H1.36222Z" fill="white"/>
</svg>
