<svg width="232" height="152" viewBox="0 0 232 152" fill="none" xmlns="http://www.w3.org/2000/svg">
<path d="M231.66 74.38C231.32 73.62 223.14 55.49 204.83 37.18C187.87 20.22 158.7 0 116 0C73.2995 0 44.1295 20.22 27.1695 37.18C8.85952 55.49 0.679524 73.62 0.339524 74.38C0.116854 74.8928 0.00195313 75.4459 0.00195312 76.005C0.00195312 76.5641 0.116854 77.1172 0.339524 77.63C0.679524 78.4 8.85952 96.52 27.1695 114.83C44.1695 131.83 73.3095 152 116 152C158.69 152 187.87 131.79 204.83 114.83C223.14 96.52 231.32 78.4 231.66 77.63C231.882 77.1172 231.997 76.5641 231.997 76.005C231.997 75.4459 231.882 74.8928 231.66 74.38ZM198.96 109.38C175.89 132.38 147.96 144 115.96 144C83.9595 144 56.0695 132.35 32.9595 109.38C23.1264 99.5735 14.8568 88.3157 8.43952 76C14.8688 63.6814 23.152 52.4235 32.9995 42.62C56.1095 19.65 83.9995 8 116 8C148 8 175.89 19.65 199 42.62C208.846 52.4245 217.129 63.6823 223.56 76C217.13 88.3184 208.847 99.5763 199 109.38H198.96ZM116 32C107.297 32 98.7902 34.5806 91.5544 39.4153C84.3187 44.2501 78.6791 51.122 75.3488 59.1619C72.0186 67.2019 71.1472 76.0488 72.845 84.584C74.5427 93.1191 78.7333 100.959 84.8868 107.113C91.0403 113.266 98.8804 117.457 107.416 119.155C115.951 120.852 124.798 119.981 132.838 116.651C140.878 113.32 147.749 107.681 152.584 100.445C157.419 93.2093 160 84.7024 160 76C159.986 64.3345 155.346 53.1507 147.098 44.9019C138.849 36.6532 127.665 32.0132 116 32ZM116 112C108.879 112 101.919 109.889 95.999 105.933C90.0788 101.977 85.4646 96.3547 82.7399 89.7766C80.0151 83.1985 79.3022 75.9601 80.6913 68.9767C82.0803 61.9934 85.509 55.5788 90.5437 50.5442C95.5784 45.5095 101.993 42.0808 108.976 40.6917C115.96 39.3027 123.198 40.0156 129.776 42.7403C136.354 45.4651 141.977 50.0793 145.932 55.9995C149.888 61.9196 152 68.8799 152 76C152 85.5478 148.207 94.7045 141.455 101.456C134.704 108.207 125.547 112 116 112Z" fill="black"/>
</svg>
